# xmcd
#
# Track frame offsets: 
#        150
#        17923
#        32854
#        46078
#        59815
#        78213
#        89987
#        101626
#        117197
#
# Disc length: 1826 seconds
#
# Revision: 0
# Processed by: cddbd v1.5.2PL0 Copyright (c) Steve Scherf et al.
# Submitted via: ExactAudioCopy v1.3
#
DISCID=77072009
DTITLE=Terry Medeiros - Blue Asylum
DYEAR=2019
DGENRE=Electric Blues
TTITLE0=TM Honky Tonk
TTITLE1=Chocolate Sauce
TTITLE2=Como Shun
TTITLE3=Border Line
TTITLE4=Counts King
TTITLE5=Scrub Down
TTITLE6=Skin Face
TTITLE7=Gad About
TTITLE8=Fred Go Funky
EXTD=
EXTT0=
EXTT1=
EXTT2=
EXTT3=
EXTT4=
EXTT5=
EXTT6=
EXTT7=
EXTT8=
PLAYORDER=
